# xmcd
#
# Track frame offsets:
#	150
#	15030
#	26108
#
# Disc length: 611 seconds
# Revision: 0
# Processed by: cddbd v1.5.2PL0 Copyright (c) Steve Scherf et al.
# Submitted via: dBpowerAMP V12.0
#
DISCID=13026103
DTITLE=The Soundabout - Wie Ben Ik?
DYEAR=2010
DGENRE=Ska
TTITLE0=Wie Ben Ik?
TTITLE1=Boskanova
TTITLE2=Kort Dag
EXTD=
EXTT0=
EXTT1=
EXTT2=
PLAYORDER=
